<svg width="749" height="132" viewBox="0 0 749 132" fill="none" xmlns="http://www.w3.org/2000/svg">
<path d="M64.3188 3.31972C30.4737 4.16023 3.29502 31.9013 3.29502 66C3.29502 100.099 30.4737 127.84 64.3188 128.68V132H0V0H64.3188V3.31972Z" fill="#F4F4F4"/>
<path d="M131.801 132H67.6139V128.677C101.398 127.768 128.506 100.054 128.506 66C128.506 31.9456 101.398 4.23235 67.6139 3.3232V0H131.801V132Z" fill="#F4F4F4"/>
<path d="M177.931 116.523V15.4771H208.624C219.233 15.4771 227.617 18.1811 233.774 23.5892C239.932 28.9024 243.01 36.2555 243.01 45.6485C243.01 50.3925 241.921 54.6146 239.742 58.3148C237.563 61.9202 234.769 64.7666 231.359 66.8539C227.948 68.9412 224.443 70.1272 220.844 70.4119L220.275 68.704C227.001 69.0836 232.022 70.6965 235.337 73.5429C238.747 76.3892 240.737 81.0383 241.305 87.49L243.863 116.523H231.643L229.227 89.0555C228.943 85.9245 228.185 83.4102 226.954 81.5127C225.817 79.5202 223.97 78.097 221.412 77.2431C218.949 76.2943 215.539 75.82 211.181 75.82H190.151V116.523H177.931ZM190.151 63.8652H208.624C215.634 63.8652 220.986 62.2997 224.68 59.1687C228.375 55.9429 230.222 51.4361 230.222 45.6485C230.222 39.766 228.375 35.2593 224.68 32.1283C220.986 28.9973 215.634 27.4318 208.624 27.4318H190.151V63.8652Z" fill="#F4F4F4"/>
<path d="M277.768 118.231C270.284 118.231 264.316 115.716 259.864 110.688C255.412 105.564 253.186 98.5434 253.186 89.6248V41.0943H265.121V86.3515C265.121 93.6572 266.4 99.0652 268.958 102.576C271.61 105.991 275.636 107.699 281.036 107.699C286.909 107.699 291.551 105.802 294.961 102.006C298.372 98.1164 300.077 92.8032 300.077 86.0668V41.0943H312.013V116.523H300.645V97.8793L302.492 98.8755C300.977 105.043 298.087 109.834 293.824 113.25C289.562 116.57 284.209 118.231 277.768 118.231Z" fill="#F4F4F4"/>
<path d="M356.859 118.231C350.322 118.231 344.686 117.092 339.95 114.815C335.213 112.538 331.471 109.502 328.724 105.707C326.072 101.817 324.556 97.4997 324.177 92.7558L336.681 91.9019C337.439 96.551 339.476 100.204 342.791 102.86C346.202 105.517 350.891 106.845 356.859 106.845C362.448 106.845 366.758 106.039 369.789 104.426C372.915 102.813 374.478 100.299 374.478 96.883C374.478 94.7008 373.957 92.8981 372.915 91.4749C371.873 90.0518 369.931 88.8658 367.09 87.917C364.248 86.8733 360.08 85.8771 354.585 84.9283C347.291 83.6 341.56 81.9871 337.392 80.0895C333.318 78.097 330.429 75.6302 328.724 72.6889C327.019 69.7477 326.166 66.2372 326.166 62.1574C326.166 57.793 327.256 53.903 329.435 50.4873C331.613 47.0717 334.834 44.3677 339.097 42.3752C343.36 40.3827 348.57 39.3865 354.727 39.3865C360.979 39.3865 366.19 40.5251 370.358 42.8022C374.621 44.9844 377.983 47.9256 380.446 51.6259C382.909 55.2313 384.52 59.2162 385.278 63.5806L372.773 64.4345C372.205 61.7779 371.116 59.4534 369.505 57.4609C367.989 55.3736 365.953 53.7607 363.395 52.6221C360.932 51.3887 357.996 50.772 354.585 50.772C349.091 50.772 345.018 51.8631 342.365 54.0453C339.713 56.2275 338.387 58.9315 338.387 62.1574C338.387 64.7191 339.002 66.759 340.234 68.2771C341.465 69.7952 343.455 71.0286 346.202 71.9774C348.949 72.8313 352.596 73.6377 357.143 74.3968C364.911 75.6302 370.926 77.2431 375.189 79.2356C379.452 81.1332 382.436 83.5051 384.141 86.3515C385.846 89.1979 386.699 92.7084 386.699 96.883C386.699 101.342 385.372 105.185 382.72 108.411C380.162 111.542 376.61 113.961 372.063 115.669C367.611 117.377 362.543 118.231 356.859 118.231Z" fill="#F4F4F4"/>
<path d="M428.134 118.8C420.082 118.8 413.262 116.665 407.673 112.396C402.084 108.126 397.821 102.054 394.884 94.179C392.043 86.304 390.622 76.9585 390.622 66.1423C390.622 55.2313 392.043 45.8383 394.884 37.9633C397.821 30.0884 402.084 24.0162 407.673 19.7466C413.262 15.3822 420.082 13.2 428.134 13.2C437.039 13.2 444.617 16.1412 450.87 22.0237C457.122 27.8113 461.29 35.9234 463.374 46.3601L450.301 47.214C448.691 39.9084 445.896 34.4054 441.918 30.7051C438.034 27.0049 433.439 25.1547 428.134 25.1547C422.735 25.1547 418.188 26.7677 414.493 29.9935C410.894 33.1245 408.147 37.7736 406.252 43.9407C404.357 50.0129 403.41 57.4135 403.41 66.1423C403.41 74.7763 404.357 82.1294 406.252 88.2016C408.147 94.2739 410.894 98.9229 414.493 102.149C418.188 105.28 422.735 106.845 428.134 106.845C434.008 106.845 438.981 104.805 443.054 100.726C447.128 96.6458 449.875 90.5736 451.296 82.5089L464.226 83.2205C462.426 94.3213 458.353 103.05 452.006 109.407C445.659 115.669 437.702 118.8 428.134 118.8Z" fill="#F4F4F4"/>
<path d="M500.263 118.231C493.348 118.231 487.285 116.618 482.075 113.392C476.959 110.166 472.981 105.612 470.139 99.7294C467.297 93.752 465.876 86.7784 465.876 78.8086C465.876 70.7439 467.297 63.7704 470.139 57.8879C472.981 52.0054 476.959 47.4512 482.075 44.2253C487.285 40.9995 493.348 39.3865 500.263 39.3865C507.178 39.3865 513.193 40.9995 518.309 44.2253C523.519 47.4512 527.545 52.0054 530.387 57.8879C533.229 63.7704 534.65 70.7439 534.65 78.8086C534.65 86.7784 533.229 93.752 530.387 99.7294C527.545 105.612 523.519 110.166 518.309 113.392C513.193 116.618 507.178 118.231 500.263 118.231ZM500.263 106.845C507.178 106.845 512.53 104.378 516.319 99.4448C520.203 94.4162 522.145 87.5375 522.145 78.8086C522.145 70.0798 520.203 63.2485 516.319 58.3148C512.53 53.2863 507.178 50.772 500.263 50.772C493.348 50.772 487.948 53.2863 484.064 58.3148C480.275 63.2485 478.38 70.0798 478.38 78.8086C478.38 87.5375 480.275 94.4162 484.064 99.4448C487.948 104.378 493.348 106.845 500.263 106.845Z" fill="#F4F4F4"/>
<path d="M567.986 118.231C561.355 118.231 555.624 116.618 550.793 113.392C545.962 110.166 542.22 105.612 539.567 99.7294C537.01 93.8469 535.731 86.8733 535.731 78.8086C535.731 70.7439 537.01 63.7704 539.567 57.8879C542.22 52.0054 545.962 47.4512 550.793 44.2253C555.624 40.9995 561.355 39.3865 567.986 39.3865C573.291 39.3865 577.933 40.6674 581.911 43.2291C585.89 45.696 588.779 48.4949 590.579 51.6259V15.4771H602.515V116.523H591.716L591.29 105.137C589.206 109.217 586.127 112.443 582.053 114.815C577.98 117.092 573.291 118.231 567.986 118.231ZM568.697 106.845C573.244 106.845 577.128 105.707 580.348 103.43C583.664 101.153 586.174 97.9267 587.879 93.752C589.679 89.4825 590.579 84.5013 590.579 78.8086C590.579 72.9261 589.679 67.8976 587.879 63.7229C586.174 59.5483 583.664 56.3698 580.348 54.1876C577.033 51.9105 573.054 50.772 568.412 50.772C562.255 50.772 557.329 53.2863 553.635 58.3148C550.035 63.2485 548.235 70.0798 548.235 78.8086C548.235 87.4426 550.035 94.2739 553.635 99.3024C557.329 104.331 562.35 106.845 568.697 106.845Z" fill="#F4F4F4"/>
<path d="M644.093 116.523V41.0943H656.029V116.523H644.093ZM613.827 116.523V105.991H682.032V116.523H613.827ZM615.248 51.6259V41.0943H656.029V51.6259H615.248ZM642.956 29.2819V15.3348H655.461V29.2819H642.956Z" fill="#F4F4F4"/>
<path d="M728.583 116.523C721.289 116.523 715.842 114.815 712.243 111.399C708.643 107.984 706.843 102.766 706.843 95.7445V23.4469H718.779V95.7445C718.779 99.255 719.584 101.864 721.195 103.572C722.805 105.185 725.268 105.991 728.583 105.991H748.761V116.523H728.583ZM681.977 51.6259V41.0943H748.761V51.6259H681.977Z" fill="#F4F4F4"/>
</svg>
